# xmcd
#
# Track frame offsets: 
#        150
#        10449
#        20218
#        41077
#        58486
#        78996
#        100124
#        114526
#        131780
#        142351
#        156820
#        168549
#        180726
#        191317
#        203453
#        213075
#
# Disc length: 2989 seconds
#
# Revision: 2
# Processed by: cddbd v1.5.2PL0 Copyright (c) Steve Scherf et al.
# Submitted via: ExactAudioCopyFreeDBPlugin 1.0
#
DISCID=e80bab10
DTITLE=Creedence Clearwater Revival - The Singles Collection
DYEAR=1900
DGENRE=Blues
TTITLE0=Porterville
TTITLE1=Call It Pretending
TTITLE2=Suzie Q (PT. 1)
TTITLE3=Suzie Q (PT. 2)
TTITLE4=I Put A Spell On You
TTITLE5=Walk On The Water
TTITLE6=Proud Mary
TTITLE7=Born On The Bayou
TTITLE8=Bad Moon Rising
TTITLE9=Lodi
TTITLE10=Green River
TTITLE11=Commotion
TTITLE12=Fortunate Son
TTITLE13=Down On The Corner
TTITLE14=Travelin' Band
TTITLE15=Who Will Stop The Rain
EXTD=
EXTT0=
EXTT1=
EXTT2=
EXTT3=
EXTT4=
EXTT5=
EXTT6=
EXTT7=
EXTT8=
EXTT9=
EXTT10=
EXTT11=
EXTT12=
EXTT13=
EXTT14=
EXTT15=
PLAYORDER=
